<?xml version="1.0" encoding="utf-8"?>
<!-- Generator: Adobe Illustrator 19.0.0, SVG Export Plug-In . SVG Version: 6.00 Build 0)  -->
<svg version="1.1"
	 id="svg2" inkscape:output_extension="org.inkscape.output.svg.inkscape" sodipodi:docname="China-text.svg" inkscape:version="0.46" sodipodi:version="0.32" xmlns:inkscape="http://www.inkscape.org/namespaces/inkscape" xmlns:sodipodi="http://sodipodi.sourceforge.net/DTD/sodipodi-0.dtd" xmlns:dc="http://purl.org/dc/elements/1.1/" xmlns:rdf="http://www.w3.org/1999/02/22-rdf-syntax-ns#" xmlns:cc="http://creativecommons.org/ns#" xmlns:svg="http://www.w3.org/2000/svg"
	 xmlns="http://www.w3.org/2000/svg" xmlns:xlink="http://www.w3.org/1999/xlink" x="0px" y="0px" viewBox="-355 204 512 280"
	 style="enable-background:new -355 204 512 280;" xml:space="preserve">
<style type="text/css">
	.st0{fill:none;}
</style>
<defs>
	
	
		<inkscape:perspective  sodipodi:type="inkscape:persp3d" inkscape:vp_y="0 : 1000 : 0" inkscape:vp_x="0 : 526.18109 : 1" inkscape:vp_z="744.09448 : 526.18109 : 1" id="perspective9" inkscape:persp3d-origin="372.04724 : 350.78739 : 1">
		</inkscape:perspective>
</defs>
<sodipodi:namedview  inkscape:window-y="-8" inkscape:window-x="-8" inkscape:window-height="750" inkscape:window-width="1280" inkscape:pageshadow="2" inkscape:current-layer="svg2" inkscape:pageopacity="0.0" showgrid="false" objecttolerance="10.0" gridtolerance="10.0" guidetolerance="10.0" bordercolor="#666666" borderopacity="1.0" pagecolor="#ffffff" id="base" inkscape:cy="51.055631" inkscape:cx="279.26974" inkscape:zoom="1.0625">
	</sodipodi:namedview>
<rect id="rect2386" x="-355" y="204" class="st0" width="512" height="280"/>
<path id="path2384" d="M-235,413v-51h-34h-34v6.6c0,5.7-0.9,6.9-6.6,9c-3.7,1.3-7.5,2.4-8.5,2.4c-1.1,0-1.9-21.3-1.9-52
	c0-28.6,0.1-52,0.3-52c0.2,0,4.2,2.2,9,5c8.3,4.8,10.2,5,42.2,5l33.5,0v-29c0-15.9,0.5-29,1.1-29c0.6,0,5.6,2.3,11.2,5.1
	c9.5,4.8,9.9,5.4,6.9,8.7c-2.5,2.7-3.2,8.1-3.2,23.9V286h34h34l3.3-5c4.2-6.4,6.4-6.3,14.9,0.8c6.7,5.6,6.8,5.9,3.4,9.7
	c-3.1,3.4-3.5,8.6-3.5,44v40.1l-6.3,2.2c-9.3,3.2-9.7,3-9.7-6.8v-9h-35h-35v48v48l-7.2,3c-4,1.7-7.6,3-8,3S-235,441-235,413z
	 M-235,324v-34h-34h-34v34v34h34h34V324z M-149,324v-34h-35h-35v34v34h35h35V324z M-60,347c0-63.3,0.5-115,1-115
	c0.5,0,4.6,2.2,9,4.9l8,4.9l75.9,0.1l75.9,0.1l5.6-5.4l5.6-5.4l7.1,6.9l7.1,6.9l-4.4,3.6l-4.4,3.6l1,98.9l1,98.9l-5.2,1.9
	c-2.9,1-6.5,2.4-8.2,3.1c-2.5,1-2.9-0.6-2.3-9.8l0.7-11H35.2H-43v10c0,9.6-0.3,10.1-7.9,14c-4.4,2.2-8.2,4-8.5,4S-60,410.3-60,347z
	 M113,338v-92H35h-78v92v92h78h78V338z M-33.9,402.1l-3.7-4.1h31.3H25v-34v-34H11.3c-7.5,0-16.6,1-20.2,2.3c-5.7,2-7,1.7-10.7-2
	l-4.3-4.3H0.6H25v-24v-24H4.9c-11.1,0-22,1-24.2,2.2c-3.4,1.8-4.9,1.4-8.3-2l-4.2-4.2h54.2h54.2l6.1-7l6.1-7l7.9,8.5l7.9,8.5
	l-31.9,0.5L41,278.1v24v24h13.7c12,0,14.2-0.6,18.3-5c6.2-6.6,7.9-6.3,16,2l6.8,7H68.4H41v34v34h17.6c17,0,17.8-0.2,23.4-6
	c3.2-3.3,6.7-6,8-6c1.2,0,5.7,3.5,9.8,7.8l7.6,7.8l-64.7,0.9c-35.6,0.5-66.6,1.5-68.8,2.3C-28.9,405.8-31.3,405-33.9,402.1z
	 M68.7,371.5c-2.8-5.8-9-14.8-13.6-20c-10.9-12.3-6.9-14.6,9.4-5.5c21.1,11.8,25.7,18.8,20.2,30.9C80.7,385.6,74.6,383.5,68.7,371.5
	z"/>
</svg>
